<svg xmlns="http://www.w3.org/2000/svg" width="257" height="11"><g transform="translate(0 0.378)"><path d="M 0 10.106 L 0 -0 L 256.23 -0 L 256.23 10.106 Z" fill="transparent"></path><g transform="translate(0.713 0.118)"><path d="M 21.034 5.101 C 20.192 4.284 15.475 3.962 12.906 3.432 C 11.409 3.123 9.543 2.526 11.24 2.472 C 23.257 2.088 26.736 -0.291 41.423 0.03 C 101.042 1.329 161.186 0.126 220.943 0.761 C 225.142 0.805 229.361 0.812 233.564 0.85 C 257.853 1.07 257.853 1.071 251.088 4.16 C 244.124 7.338 242.7 7.54 217.439 7.83 C 164.958 8.432 112.445 8.993 59.784 9.181 C 43.362 9.24 26.954 9.074 13.151 7.601 C 9.376 7.211 6.022 6.749 3.188 6.228 C 0.804 5.772 -1.727 5.13 1.594 4.62 C 5.039 4.091 8.079 4.704 11.092 4.93 C 13.841 5.139 16.533 5.378 21.034 5.101 Z" fill="#FF99FF"></path></g></g></svg>