<svg width="219" height="39" viewBox="0 0 219 39" fill="none" xmlns="http://www.w3.org/2000/svg">
<path d="M2.272 31V14.296H5.088V31H2.272ZM2.272 11.16V7.64H5.088V11.16H2.272ZM26.479 10.84H18.639V31H15.759V10.84H7.919V8.28H26.479V10.84ZM43.7993 31H40.9833V21.656C40.9833 19.9493 40.6739 18.6693 40.0553 17.816C39.4579 16.9627 38.5939 16.536 37.4633 16.536C36.7379 16.536 36.0019 16.728 35.2552 17.112C34.5299 17.496 33.8899 18.0187 33.3353 18.68C32.7806 19.32 32.3753 20.0667 32.1193 20.92V31H29.3033V7.64H32.1193V17.88C32.7806 16.6853 33.6766 15.7467 34.8073 15.064C35.9593 14.36 37.1966 14.008 38.5193 14.008C39.5219 14.008 40.3539 14.1893 41.0153 14.552C41.6979 14.8933 42.2419 15.384 42.6473 16.024C43.0526 16.664 43.3406 17.4107 43.5113 18.264C43.7033 19.096 43.7993 20.0133 43.7993 21.016V31ZM57.0103 16.76C55.6023 16.7813 54.3543 17.144 53.2663 17.848C52.1996 18.5307 51.4423 19.48 50.9943 20.696V31H48.1783V14.296H50.8023V18.168C51.3783 17.016 52.1356 16.088 53.0743 15.384C54.0343 14.6587 55.0369 14.2533 56.0823 14.168C56.2956 14.168 56.4769 14.168 56.6263 14.168C56.7756 14.168 56.9036 14.1787 57.0103 14.2V16.76ZM59.8033 31V14.296H62.6193V31H59.8033ZM59.8033 11.16V7.64H62.6193V11.16H59.8033ZM71.9783 31L65.4183 14.296H68.3623L73.6103 28.312L78.8583 14.296H81.6103L75.0503 31H71.9783ZM91.2578 31.32C89.9991 31.32 88.8471 31.096 87.8018 30.648C86.7778 30.1787 85.8818 29.5493 85.1138 28.76C84.3671 27.9493 83.7804 27.0213 83.3538 25.976C82.9484 24.9307 82.7458 23.8213 82.7458 22.648C82.7458 21.0693 83.1084 19.6293 83.8338 18.328C84.5591 17.0267 85.5618 15.9813 86.8418 15.192C88.1431 14.4027 89.6258 14.008 91.2898 14.008C92.9751 14.008 94.4364 14.4133 95.6738 15.224C96.9324 16.0133 97.9031 17.0587 98.5858 18.36C99.2898 19.64 99.6418 21.0267 99.6418 22.52C99.6418 22.7333 99.6311 22.9467 99.6098 23.16C99.6098 23.352 99.5991 23.5013 99.5778 23.608H85.7218C85.8071 24.696 86.1058 25.6667 86.6178 26.52C87.1511 27.352 87.8338 28.0133 88.6658 28.504C89.4978 28.9733 90.3938 29.208 91.3538 29.208C92.3778 29.208 93.3378 28.952 94.2338 28.44C95.1511 27.928 95.7804 27.256 96.1218 26.424L98.5538 27.096C98.1911 27.9067 97.6471 28.632 96.9218 29.272C96.2178 29.912 95.3751 30.4133 94.3938 30.776C93.4338 31.1387 92.3884 31.32 91.2578 31.32ZM85.6258 21.656H97.0178C96.9324 20.568 96.6231 19.608 96.0898 18.776C95.5564 17.944 94.8738 17.2933 94.0418 16.824C93.2098 16.3547 92.2924 16.12 91.2898 16.12C90.3084 16.12 89.4018 16.3547 88.5698 16.824C87.7378 17.2933 87.0551 17.944 86.5218 18.776C86.0098 19.608 85.7111 20.568 85.6258 21.656Z" fill="#213B54"/>
<path d="M120.66 25.144C120.66 26.3173 120.361 27.3413 119.764 28.216C119.167 29.0907 118.356 29.7733 117.332 30.264C116.329 30.7547 115.22 31 114.004 31H103.22V8.28H114.516C115.583 8.28 116.5 8.568 117.268 9.144C118.057 9.69867 118.655 10.424 119.06 11.32C119.487 12.1947 119.7 13.112 119.7 14.072C119.7 15.1813 119.412 16.2267 118.836 17.208C118.281 18.168 117.481 18.8827 116.436 19.352C117.737 19.736 118.761 20.4507 119.508 21.496C120.276 22.52 120.66 23.736 120.66 25.144ZM117.748 24.632C117.748 23.928 117.588 23.2773 117.268 22.68C116.969 22.0827 116.553 21.6027 116.02 21.24C115.508 20.8773 114.911 20.696 114.228 20.696H106.1V28.504H114.004C114.708 28.504 115.337 28.3227 115.892 27.96C116.468 27.5973 116.916 27.128 117.236 26.552C117.577 25.9547 117.748 25.3147 117.748 24.632ZM106.1 10.776V18.36H113.332C114.015 18.36 114.612 18.1893 115.124 17.848C115.657 17.5067 116.073 17.048 116.372 16.472C116.692 15.896 116.852 15.2667 116.852 14.584C116.852 13.8587 116.703 13.2187 116.404 12.664C116.127 12.088 115.732 11.6293 115.22 11.288C114.729 10.9467 114.164 10.776 113.524 10.776H106.1ZM131.633 31.32C130.374 31.32 129.222 31.096 128.177 30.648C127.153 30.1787 126.257 29.5493 125.489 28.76C124.742 27.9493 124.155 27.0213 123.729 25.976C123.323 24.9307 123.121 23.8213 123.121 22.648C123.121 21.0693 123.483 19.6293 124.209 18.328C124.934 17.0267 125.937 15.9813 127.217 15.192C128.518 14.4027 130.001 14.008 131.665 14.008C133.35 14.008 134.811 14.4133 136.049 15.224C137.307 16.0133 138.278 17.0587 138.961 18.36C139.665 19.64 140.017 21.0267 140.017 22.52C140.017 22.7333 140.006 22.9467 139.985 23.16C139.985 23.352 139.974 23.5013 139.953 23.608H126.097C126.182 24.696 126.481 25.6667 126.993 26.52C127.526 27.352 128.209 28.0133 129.041 28.504C129.873 28.9733 130.769 29.208 131.729 29.208C132.753 29.208 133.713 28.952 134.609 28.44C135.526 27.928 136.155 27.256 136.497 26.424L138.929 27.096C138.566 27.9067 138.022 28.632 137.297 29.272C136.593 29.912 135.75 30.4133 134.769 30.776C133.809 31.1387 132.763 31.32 131.633 31.32ZM126.001 21.656H137.393C137.307 20.568 136.998 19.608 136.465 18.776C135.931 17.944 135.249 17.2933 134.417 16.824C133.585 16.3547 132.667 16.12 131.665 16.12C130.683 16.12 129.777 16.3547 128.945 16.824C128.113 17.2933 127.43 17.944 126.897 18.776C126.385 19.608 126.086 20.568 126.001 21.656ZM141.835 26.168C141.835 25.1013 142.134 24.184 142.731 23.416C143.35 22.6267 144.192 22.0187 145.259 21.592C146.326 21.1653 147.563 20.952 148.971 20.952C149.718 20.952 150.507 21.016 151.339 21.144C152.171 21.2507 152.907 21.4213 153.547 21.656V20.44C153.547 19.16 153.163 18.1573 152.395 17.432C151.627 16.6853 150.539 16.312 149.131 16.312C148.214 16.312 147.328 16.4827 146.475 16.824C145.643 17.144 144.758 17.6133 143.819 18.232L142.795 16.248C143.883 15.5013 144.971 14.9467 146.059 14.584C147.147 14.2 148.278 14.008 149.451 14.008C151.584 14.008 153.27 14.6053 154.507 15.8C155.744 16.9733 156.363 18.616 156.363 20.728V27.8C156.363 28.1413 156.427 28.3973 156.555 28.568C156.704 28.7173 156.939 28.8027 157.259 28.824V31C156.982 31.0427 156.736 31.0747 156.523 31.096C156.331 31.1173 156.171 31.128 156.043 31.128C155.382 31.128 154.88 30.9467 154.539 30.584C154.219 30.2213 154.038 29.8373 153.995 29.432L153.931 28.376C153.206 29.3147 152.256 30.04 151.083 30.552C149.91 31.064 148.747 31.32 147.595 31.32C146.486 31.32 145.494 31.096 144.619 30.648C143.744 30.1787 143.062 29.56 142.571 28.792C142.08 28.0027 141.835 27.128 141.835 26.168ZM152.715 27.352C152.971 27.0533 153.174 26.7547 153.323 26.456C153.472 26.136 153.547 25.8693 153.547 25.656V23.576C152.886 23.32 152.192 23.128 151.467 23C150.742 22.8507 150.027 22.776 149.323 22.776C147.894 22.776 146.731 23.064 145.835 23.64C144.96 24.1947 144.523 24.9627 144.523 25.944C144.523 26.4773 144.662 27 144.939 27.512C145.238 28.0027 145.664 28.408 146.219 28.728C146.795 29.048 147.499 29.208 148.331 29.208C149.206 29.208 150.038 29.0373 150.827 28.696C151.616 28.3333 152.246 27.8853 152.715 27.352ZM160.706 24.312V14.296H163.522V23.768C163.522 25.4747 163.82 26.7547 164.418 27.608C165.015 28.4613 165.9 28.888 167.074 28.888C167.842 28.888 168.578 28.728 169.282 28.408C170.007 28.0667 170.658 27.5867 171.234 26.968C171.81 26.3493 172.258 25.6133 172.578 24.76V14.296H175.394V27.8C175.394 28.1413 175.458 28.3973 175.586 28.568C175.735 28.7173 175.97 28.8027 176.29 28.824V31C175.97 31.0427 175.714 31.064 175.522 31.064C175.351 31.0853 175.18 31.096 175.01 31.096C174.476 31.096 174.018 30.936 173.634 30.616C173.25 30.2747 173.047 29.8587 173.026 29.368L172.962 27.416C172.236 28.6533 171.255 29.6133 170.018 30.296C168.802 30.9787 167.468 31.32 166.018 31.32C164.268 31.32 162.946 30.7333 162.05 29.56C161.154 28.3653 160.706 26.616 160.706 24.312ZM188.725 30.168C188.49 30.2747 188.17 30.4133 187.765 30.584C187.359 30.7547 186.89 30.904 186.357 31.032C185.823 31.16 185.258 31.224 184.661 31.224C183.978 31.224 183.349 31.1067 182.773 30.872C182.197 30.616 181.738 30.232 181.397 29.72C181.055 29.1867 180.885 28.5253 180.885 27.736V16.504H178.613V14.296H180.885V8.728H183.701V14.296H187.445V16.504H183.701V26.872C183.743 27.4693 183.946 27.9173 184.309 28.216C184.671 28.4933 185.098 28.632 185.589 28.632C186.143 28.632 186.655 28.536 187.125 28.344C187.594 28.152 187.903 28.0133 188.053 27.928L188.725 30.168ZM192.103 35.544C192.38 35.5653 192.657 35.5867 192.935 35.608C193.212 35.6507 193.425 35.672 193.575 35.672C193.916 35.672 194.215 35.5547 194.471 35.32C194.727 35.0853 195.004 34.6267 195.303 33.944C195.623 33.2827 196.028 32.3013 196.519 31L189.447 14.296H192.423L198.055 28.152L203.143 14.296H205.927L197.799 35.384C197.606 35.8747 197.319 36.3333 196.935 36.76C196.572 37.208 196.103 37.56 195.527 37.816C194.951 38.072 194.257 38.2 193.447 38.2C193.255 38.2 193.052 38.1893 192.839 38.168C192.647 38.1467 192.401 38.104 192.103 38.04V35.544Z" fill="#5EC1F6"/>
</svg>
