<?xml version="1.0" encoding="UTF-8" standalone="no"?>
<!DOCTYPE svg PUBLIC "-//W3C//DTD SVG 1.1//EN" "http://www.w3.org/Graphics/SVG/1.1/DTD/svg11.dtd">
<svg width="100%" height="100%" viewBox="0 0 608 78" version="1.1" xmlns="http://www.w3.org/2000/svg" xmlns:xlink="http://www.w3.org/1999/xlink" xml:space="preserve" xmlns:serif="http://www.serif.com/" style="fill-rule:evenodd;clip-rule:evenodd;stroke-linejoin:round;stroke-miterlimit:2;">
    <path d="M2.118,61L2.118,17.95L7.94,17.95L7.94,61L2.118,61ZM5.07,8.438C3.867,8.438 2.856,8.028 2.036,7.208C1.216,6.388 0.806,5.404 0.806,4.256C0.806,3.108 1.216,2.151 2.036,1.386C2.856,0.566 3.867,0.156 5.07,0.156C6.273,0.156 7.284,0.539 8.104,1.304C8.924,2.069 9.334,3.026 9.334,4.174C9.334,5.377 8.924,6.388 8.104,7.208C7.339,8.028 6.327,8.438 5.07,8.438ZM33.834,61L33.834,8.848L13.662,8.848L13.662,3.6L60.074,3.6L60.074,8.848L39.902,8.848L39.902,61L33.834,61ZM95.434,17.54C98.933,17.54 101.994,18.223 104.618,19.59C107.297,20.902 109.374,22.925 110.85,25.658C112.381,28.391 113.146,31.835 113.146,35.99L113.146,61L107.324,61L107.324,36.564C107.324,32.027 106.176,28.61 103.88,26.314C101.639,23.963 98.468,22.788 94.368,22.788C91.307,22.788 88.628,23.417 86.332,24.674C84.091,25.877 82.341,27.653 81.084,30.004C79.881,32.3 79.28,35.088 79.28,38.368L79.28,61L73.458,61L73.458,0.156L79.28,0.156L79.28,29.758L78.132,27.544C79.499,24.428 81.685,21.995 84.692,20.246C87.699,18.442 91.279,17.54 95.434,17.54ZM133.792,61L133.792,17.95L139.368,17.95L139.368,29.676L138.794,27.626C139.997,24.346 142.019,21.859 144.862,20.164C147.705,18.415 151.231,17.54 155.44,17.54L155.44,23.198L154.784,23.198C154.565,23.143 154.347,23.116 154.128,23.116C149.591,23.116 146.037,24.51 143.468,27.298C140.899,30.031 139.614,33.94 139.614,39.024L139.614,61L133.792,61ZM170.984,61L170.984,17.95L176.806,17.95L176.806,61L170.984,61ZM173.936,8.438C172.733,8.438 171.722,8.028 170.902,7.208C170.082,6.388 169.672,5.404 169.672,4.256C169.672,3.108 170.082,2.151 170.902,1.386C171.722,0.566 172.733,0.156 173.936,0.156C175.138,0.156 176.15,0.539 176.97,1.304C177.79,2.069 178.2,3.026 178.2,4.174C178.2,5.377 177.79,6.388 176.97,7.208C176.204,8.028 175.193,8.438 173.936,8.438ZM208.995,61L189.889,17.95L195.957,17.95L213.505,57.884L210.635,57.884L228.429,17.95L234.169,17.95L214.981,61L208.995,61ZM264.373,61.41C259.891,61.41 255.955,60.481 252.565,58.622C249.176,56.709 246.525,54.112 244.611,50.832C242.698,47.497 241.741,43.698 241.741,39.434C241.741,35.17 242.643,31.398 244.447,28.118C246.306,24.838 248.821,22.269 251.991,20.41C255.217,18.497 258.825,17.54 262.815,17.54C266.861,17.54 270.441,18.469 273.557,20.328C276.728,22.132 279.215,24.701 281.019,28.036C282.823,31.316 283.725,35.115 283.725,39.434C283.725,39.707 283.698,40.008 283.643,40.336L283.643,41.238L246.169,41.238L246.169,36.892L280.527,36.892L278.231,38.614C278.231,35.498 277.548,32.737 276.181,30.332C274.869,27.872 273.065,25.959 270.769,24.592C268.473,23.225 265.822,22.542 262.815,22.542C259.863,22.542 257.212,23.225 254.861,24.592C252.511,25.959 250.679,27.872 249.367,30.332C248.055,32.792 247.399,35.607 247.399,38.778L247.399,39.68C247.399,42.96 248.11,45.857 249.531,48.372C251.007,50.832 253.03,52.773 255.599,54.194C258.223,55.561 261.203,56.244 264.537,56.244C267.161,56.244 269.594,55.779 271.835,54.85C274.131,53.921 276.099,52.499 277.739,50.586L281.019,54.358C279.106,56.654 276.701,58.403 273.803,59.606C270.961,60.809 267.817,61.41 264.373,61.41Z" style="fill:rgb(15,35,44);fill-rule:nonzero;"/>
    <path d="M301.726,61L301.726,3.6L326.49,3.6C332.886,3.6 337.833,4.885 341.332,7.454C344.885,10.023 346.662,13.659 346.662,18.36C346.662,21.476 345.924,24.1 344.448,26.232C343.026,28.364 341.058,29.977 338.544,31.07C336.084,32.163 333.378,32.71 330.426,32.71L331.82,30.742C335.482,30.742 338.626,31.316 341.25,32.464C343.928,33.557 346.006,35.225 347.482,37.466C348.958,39.653 349.696,42.386 349.696,45.666C349.696,50.531 347.892,54.303 344.284,56.982C340.73,59.661 335.346,61 328.13,61L301.726,61ZM307.794,55.998L328.048,55.998C333.077,55.998 336.931,55.151 339.61,53.456C342.288,51.707 343.628,48.946 343.628,45.174C343.628,41.457 342.288,38.751 339.61,37.056C336.931,35.307 333.077,34.432 328.048,34.432L307.138,34.432L307.138,29.43L326.08,29.43C330.672,29.43 334.225,28.555 336.74,26.806C339.309,25.057 340.594,22.46 340.594,19.016C340.594,15.517 339.309,12.921 336.74,11.226C334.225,9.477 330.672,8.602 326.08,8.602L307.794,8.602L307.794,55.998ZM385.522,61.41C381.039,61.41 377.103,60.481 373.714,58.622C370.324,56.709 367.673,54.112 365.76,50.832C363.846,47.497 362.89,43.698 362.89,39.434C362.89,35.17 363.792,31.398 365.596,28.118C367.454,24.838 369.969,22.269 373.14,20.41C376.365,18.497 379.973,17.54 383.964,17.54C388.009,17.54 391.59,18.469 394.706,20.328C397.876,22.132 400.364,24.701 402.168,28.036C403.972,31.316 404.874,35.115 404.874,39.434C404.874,39.707 404.846,40.008 404.792,40.336L404.792,41.238L367.318,41.238L367.318,36.892L401.676,36.892L399.38,38.614C399.38,35.498 398.696,32.737 397.33,30.332C396.018,27.872 394.214,25.959 391.918,24.592C389.622,23.225 386.97,22.542 383.964,22.542C381.012,22.542 378.36,23.225 376.01,24.592C373.659,25.959 371.828,27.872 370.516,30.332C369.204,32.792 368.548,35.607 368.548,38.778L368.548,39.68C368.548,42.96 369.258,45.857 370.68,48.372C372.156,50.832 374.178,52.773 376.748,54.194C379.372,55.561 382.351,56.244 385.686,56.244C388.31,56.244 390.742,55.779 392.984,54.85C395.28,53.921 397.248,52.499 398.888,50.586L402.168,54.358C400.254,56.654 397.849,58.403 394.952,59.606C392.109,60.809 388.966,61.41 385.522,61.41ZM447.421,61L447.421,51.488L447.175,49.93L447.175,34.022C447.175,30.359 446.136,27.544 444.059,25.576C442.036,23.608 439.002,22.624 434.957,22.624C432.169,22.624 429.518,23.089 427.003,24.018C424.488,24.947 422.356,26.177 420.607,27.708L417.983,23.362C420.17,21.503 422.794,20.082 425.855,19.098C428.916,18.059 432.142,17.54 435.531,17.54C441.107,17.54 445.398,18.934 448.405,21.722C451.466,24.455 452.997,28.637 452.997,34.268L452.997,61L447.421,61ZM432.579,61.41C429.354,61.41 426.538,60.891 424.133,59.852C421.782,58.759 419.978,57.283 418.721,55.424C417.464,53.511 416.835,51.324 416.835,48.864C416.835,46.623 417.354,44.6 418.393,42.796C419.486,40.937 421.236,39.461 423.641,38.368C426.101,37.22 429.381,36.646 433.481,36.646L448.323,36.646L448.323,40.992L433.645,40.992C429.49,40.992 426.593,41.73 424.953,43.206C423.368,44.682 422.575,46.513 422.575,48.7C422.575,51.16 423.532,53.128 425.445,54.604C427.358,56.08 430.037,56.818 433.481,56.818C436.761,56.818 439.576,56.08 441.927,54.604C444.332,53.073 446.082,50.887 447.175,48.044L448.487,52.062C447.394,54.905 445.48,57.173 442.747,58.868C440.068,60.563 436.679,61.41 432.579,61.41ZM491.524,61.41C487.861,61.41 484.663,60.727 481.93,59.36C479.197,57.993 477.065,55.943 475.534,53.21C474.058,50.477 473.32,47.06 473.32,42.96L473.32,17.95L479.142,17.95L479.142,42.304C479.142,46.896 480.263,50.367 482.504,52.718C484.8,55.014 487.998,56.162 492.098,56.162C495.105,56.162 497.701,55.561 499.888,54.358C502.129,53.101 503.824,51.297 504.972,48.946C506.175,46.595 506.776,43.78 506.776,40.5L506.776,17.95L512.598,17.95L512.598,61L507.022,61L507.022,49.192L507.924,51.324C506.557,54.495 504.425,56.982 501.528,58.786C498.685,60.535 495.351,61.41 491.524,61.41ZM547.356,61.41C543.311,61.41 540.195,60.317 538.008,58.13C535.821,55.943 534.728,52.855 534.728,48.864L534.728,8.438L540.55,8.438L540.55,48.536C540.55,51.051 541.179,52.991 542.436,54.358C543.748,55.725 545.607,56.408 548.012,56.408C550.581,56.408 552.713,55.67 554.408,54.194L556.458,58.376C555.31,59.415 553.916,60.18 552.276,60.672C550.691,61.164 549.051,61.41 547.356,61.41ZM527.02,22.788L527.02,17.95L553.67,17.95L553.67,22.788L527.02,22.788ZM571.504,77.318C569.481,77.318 567.54,76.99 565.682,76.334C563.878,75.678 562.32,74.694 561.008,73.382L563.714,69.036C564.807,70.075 565.982,70.867 567.24,71.414C568.552,72.015 570,72.316 571.586,72.316C573.499,72.316 575.139,71.769 576.506,70.676C577.927,69.637 579.266,67.779 580.524,65.1L583.312,58.786L583.968,57.884L601.68,17.95L607.42,17.95L585.854,66.166C584.651,68.954 583.312,71.168 581.836,72.808C580.414,74.448 578.856,75.596 577.162,76.252C575.467,76.963 573.581,77.318 571.504,77.318ZM582.984,62.23L563.14,17.95L569.208,17.95L586.756,57.474L582.984,62.23Z" style="fill:rgb(94,193,246);fill-rule:nonzero;"/>
</svg>
