<svg width="608" height="78" viewBox="0 0 608 78" fill="none" xmlns="http://www.w3.org/2000/svg">
<path d="M2.118 61V17.95H7.94V61H2.118ZM5.07 8.438C3.86733 8.438 2.856 8.028 2.036 7.208C1.216 6.388 0.806 5.404 0.806 4.256C0.806 3.108 1.216 2.15133 2.036 1.386C2.856 0.565996 3.86733 0.155996 5.07 0.155996C6.27267 0.155996 7.284 0.538663 8.104 1.304C8.924 2.06933 9.334 3.026 9.334 4.174C9.334 5.37667 8.924 6.388 8.104 7.208C7.33867 8.028 6.32733 8.438 5.07 8.438ZM33.8341 61V8.848H13.6621V3.6H60.0741V8.848H39.9021V61H33.8341ZM95.434 17.54C98.9327 17.54 101.994 18.2233 104.618 19.59C107.297 20.902 109.374 22.9247 110.85 25.658C112.381 28.3913 113.146 31.8353 113.146 35.99V61H107.324V36.564C107.324 32.0267 106.176 28.61 103.88 26.314C101.639 23.9633 98.468 22.788 94.368 22.788C91.3067 22.788 88.628 23.4167 86.332 24.674C84.0907 25.8767 82.3413 27.6533 81.084 30.004C79.8813 32.3 79.28 35.088 79.28 38.368V61H73.458V0.155996H79.28V29.758L78.132 27.544C79.4987 24.428 81.6853 21.9953 84.692 20.246C87.6987 18.442 91.2793 17.54 95.434 17.54ZM133.792 61V17.95H139.368V29.676L138.794 27.626C139.997 24.346 142.019 21.8587 144.862 20.164C147.705 18.4147 151.231 17.54 155.44 17.54V23.198C155.221 23.198 155.003 23.198 154.784 23.198C154.565 23.1433 154.347 23.116 154.128 23.116C149.591 23.116 146.037 24.51 143.468 27.298C140.899 30.0313 139.614 33.94 139.614 39.024V61H133.792ZM170.984 61V17.95H176.806V61H170.984ZM173.936 8.438C172.733 8.438 171.722 8.028 170.902 7.208C170.082 6.388 169.672 5.404 169.672 4.256C169.672 3.108 170.082 2.15133 170.902 1.386C171.722 0.565996 172.733 0.155996 173.936 0.155996C175.138 0.155996 176.15 0.538663 176.97 1.304C177.79 2.06933 178.2 3.026 178.2 4.174C178.2 5.37667 177.79 6.388 176.97 7.208C176.204 8.028 175.193 8.438 173.936 8.438ZM208.995 61L189.889 17.95H195.957L213.505 57.884H210.635L228.429 17.95H234.169L214.981 61H208.995ZM264.373 61.41C259.891 61.41 255.955 60.4807 252.565 58.622C249.176 56.7087 246.525 54.112 244.611 50.832C242.698 47.4973 241.741 43.698 241.741 39.434C241.741 35.17 242.643 31.398 244.447 28.118C246.306 24.838 248.821 22.2687 251.991 20.41C255.217 18.4967 258.825 17.54 262.815 17.54C266.861 17.54 270.441 18.4693 273.557 20.328C276.728 22.132 279.215 24.7013 281.019 28.036C282.823 31.316 283.725 35.1153 283.725 39.434C283.725 39.7073 283.698 40.008 283.643 40.336C283.643 40.6093 283.643 40.91 283.643 41.238H246.169V36.892H280.527L278.231 38.614C278.231 35.498 277.548 32.7373 276.181 30.332C274.869 27.872 273.065 25.9587 270.769 24.592C268.473 23.2253 265.822 22.542 262.815 22.542C259.863 22.542 257.212 23.2253 254.861 24.592C252.511 25.9587 250.679 27.872 249.367 30.332C248.055 32.792 247.399 35.6073 247.399 38.778V39.68C247.399 42.96 248.11 45.8573 249.531 48.372C251.007 50.832 253.03 52.7727 255.599 54.194C258.223 55.5607 261.203 56.244 264.537 56.244C267.161 56.244 269.594 55.7793 271.835 54.85C274.131 53.9207 276.099 52.4993 277.739 50.586L281.019 54.358C279.106 56.654 276.701 58.4033 273.803 59.606C270.961 60.8087 267.817 61.41 264.373 61.41Z" fill="white"/>
<path d="M301.726 61V3.6H326.49C332.886 3.6 337.833 4.88466 341.332 7.454C344.885 10.0233 346.662 13.6587 346.662 18.36C346.662 21.476 345.924 24.1 344.448 26.232C343.026 28.364 341.058 29.9767 338.544 31.07C336.084 32.1633 333.378 32.71 330.426 32.71L331.82 30.742C335.482 30.742 338.626 31.316 341.25 32.464C343.928 33.5573 346.006 35.2247 347.482 37.466C348.958 39.6527 349.696 42.386 349.696 45.666C349.696 50.5313 347.892 54.3033 344.284 56.982C340.73 59.6607 335.346 61 328.13 61H301.726ZM307.794 55.998H328.048C333.077 55.998 336.931 55.1507 339.61 53.456C342.288 51.7067 343.628 48.946 343.628 45.174C343.628 41.4567 342.288 38.7507 339.61 37.056C336.931 35.3067 333.077 34.432 328.048 34.432H307.138V29.43H326.08C330.672 29.43 334.225 28.5553 336.74 26.806C339.309 25.0567 340.594 22.46 340.594 19.016C340.594 15.5173 339.309 12.9207 336.74 11.226C334.225 9.47666 330.672 8.602 326.08 8.602H307.794V55.998ZM385.522 61.41C381.039 61.41 377.103 60.4807 373.714 58.622C370.324 56.7087 367.673 54.112 365.76 50.832C363.846 47.4973 362.89 43.698 362.89 39.434C362.89 35.17 363.792 31.398 365.596 28.118C367.454 24.838 369.969 22.2687 373.14 20.41C376.365 18.4967 379.973 17.54 383.964 17.54C388.009 17.54 391.59 18.4693 394.706 20.328C397.876 22.132 400.364 24.7013 402.168 28.036C403.972 31.316 404.874 35.1153 404.874 39.434C404.874 39.7073 404.846 40.008 404.792 40.336C404.792 40.6093 404.792 40.91 404.792 41.238H367.318V36.892H401.676L399.38 38.614C399.38 35.498 398.696 32.7373 397.33 30.332C396.018 27.872 394.214 25.9587 391.918 24.592C389.622 23.2253 386.97 22.542 383.964 22.542C381.012 22.542 378.36 23.2253 376.01 24.592C373.659 25.9587 371.828 27.872 370.516 30.332C369.204 32.792 368.548 35.6073 368.548 38.778V39.68C368.548 42.96 369.258 45.8573 370.68 48.372C372.156 50.832 374.178 52.7727 376.748 54.194C379.372 55.5607 382.351 56.244 385.686 56.244C388.31 56.244 390.742 55.7793 392.984 54.85C395.28 53.9207 397.248 52.4993 398.888 50.586L402.168 54.358C400.254 56.654 397.849 58.4033 394.952 59.606C392.109 60.8087 388.966 61.41 385.522 61.41ZM447.421 61V51.488L447.175 49.93V34.022C447.175 30.3593 446.136 27.544 444.059 25.576C442.036 23.608 439.002 22.624 434.957 22.624C432.169 22.624 429.518 23.0887 427.003 24.018C424.488 24.9473 422.356 26.1773 420.607 27.708L417.983 23.362C420.17 21.5033 422.794 20.082 425.855 19.098C428.916 18.0593 432.142 17.54 435.531 17.54C441.107 17.54 445.398 18.934 448.405 21.722C451.466 24.4553 452.997 28.6373 452.997 34.268V61H447.421ZM432.579 61.41C429.354 61.41 426.538 60.8907 424.133 59.852C421.782 58.7587 419.978 57.2827 418.721 55.424C417.464 53.5107 416.835 51.324 416.835 48.864C416.835 46.6227 417.354 44.6 418.393 42.796C419.486 40.9373 421.236 39.4613 423.641 38.368C426.101 37.22 429.381 36.646 433.481 36.646H448.323V40.992H433.645C429.49 40.992 426.593 41.73 424.953 43.206C423.368 44.682 422.575 46.5133 422.575 48.7C422.575 51.16 423.532 53.128 425.445 54.604C427.358 56.08 430.037 56.818 433.481 56.818C436.761 56.818 439.576 56.08 441.927 54.604C444.332 53.0733 446.082 50.8867 447.175 48.044L448.487 52.062C447.394 54.9047 445.48 57.1733 442.747 58.868C440.068 60.5627 436.679 61.41 432.579 61.41ZM491.524 61.41C487.861 61.41 484.663 60.7267 481.93 59.36C479.197 57.9933 477.065 55.9433 475.534 53.21C474.058 50.4767 473.32 47.06 473.32 42.96V17.95H479.142V42.304C479.142 46.896 480.263 50.3673 482.504 52.718C484.8 55.014 487.998 56.162 492.098 56.162C495.105 56.162 497.701 55.5607 499.888 54.358C502.129 53.1007 503.824 51.2967 504.972 48.946C506.175 46.5953 506.776 43.78 506.776 40.5V17.95H512.598V61H507.022V49.192L507.924 51.324C506.557 54.4947 504.425 56.982 501.528 58.786C498.685 60.5353 495.351 61.41 491.524 61.41ZM547.356 61.41C543.311 61.41 540.195 60.3167 538.008 58.13C535.821 55.9433 534.728 52.8547 534.728 48.864V8.438H540.55V48.536C540.55 51.0507 541.179 52.9913 542.436 54.358C543.748 55.7247 545.607 56.408 548.012 56.408C550.581 56.408 552.713 55.67 554.408 54.194L556.458 58.376C555.31 59.4147 553.916 60.18 552.276 60.672C550.691 61.164 549.051 61.41 547.356 61.41ZM527.02 22.788V17.95H553.67V22.788H527.02ZM571.504 77.318C569.481 77.318 567.54 76.99 565.682 76.334C563.878 75.678 562.32 74.694 561.008 73.382L563.714 69.036C564.807 70.0747 565.982 70.8673 567.24 71.414C568.552 72.0153 570 72.316 571.586 72.316C573.499 72.316 575.139 71.7693 576.506 70.676C577.927 69.6373 579.266 67.7787 580.524 65.1L583.312 58.786L583.968 57.884L601.68 17.95H607.42L585.854 66.166C584.651 68.954 583.312 71.168 581.836 72.808C580.414 74.448 578.856 75.596 577.162 76.252C575.467 76.9627 573.581 77.318 571.504 77.318ZM582.984 62.23L563.14 17.95H569.208L586.756 57.474L582.984 62.23Z" fill="#5EC1F6"/>
</svg>
